PathFileType	4	(X/Y/Z)	Walk10.trc
DataRate	CameraRate	NumFrames	NumMarkers	Units	OrigDataRate	OrigDataStartFrame	OrigNumFrames
200.000000	200.000000	6	59	mm	200.000000	311	589
Frame#	Times		CLAV		RASI		RACR1		RUA1		RFA1		RWRU		LACR1		LFA1		LCAR		RTH3		RTH2		LTH4		LLFC		LTB1		LTB3		STRN		LTB4		LASI		RElbow		RTH1		RLFC		LTH2		LTH3		LToe		LTH1		LWRR		RBack		C7		RCAR		LTB2		LMT1		RTH4		LFHD		RWRR		LMMAL		T10		LMT5		RFHD		LLMAL		RBHD		RPSI		LPSI		LUA1		RTB2		LBHD		RTB4		LElbow		RTB1		RMT1		RElbowM		RTB3		RToe		RCAL		LElbowM		LCAL		LWRU		RMMAL		RLMAL		RMT5
			X1	Y1	Z1	X2	Y2	Z2	X3	Y3	Z3	X4	Y4	Z4	X5	Y5	Z5	X6	Y6	Z6	X7	Y7	Z7	X8	Y8	Z8	X9	Y9	Z9	X10	Y10	Z10	X11	Y11	Z11	X12	Y12	Z12	X13	Y13	Z13	X14	Y14	Z14	X15	Y15	Z15	X16	Y16	Z16	X17	Y17	Z17	X18	Y18	Z18	X19	Y19	Z19	X20	Y20	Z20	X21	Y21	Z21	X22	Y22	Z22	X23	Y23	Z23	X24	Y24	Z24	X25	Y25	Z25	X26	Y26	Z26	X27	Y27	Z27	X28	Y28	Z28	X29	Y29	Z29	X30	Y30	Z30	X31	Y31	Z31	X32	Y32	Z32	X33	Y33	Z33	X34	Y34	Z34	X35	Y35	Z35	X36	Y36	Z36	X37	Y37	Z37	X38	Y38	Z38	X39	Y39	Z39	X40	Y40	Z40	X41	Y41	Z41	X42	Y42	Z42	X43	Y43	Z43	X44	Y44	Z44	X45	Y45	Z45	X46	Y46	Z46	X47	Y47	Z47	X48	Y48	Z48	X49	Y49	Z49	X50	Y50	Z50	X51	Y51	Z51	X52	Y52	Z52	X53	Y53	Z53	X54	Y54	Z54	X55	Y55	Z55	X56	Y56	Z56	X57	Y57	Z57	X58	Y58	Z58	X59	Y59	Z59

311	1.555	-419.32	1338.1	-67.775	-397.99	936.41	82.9	-469.86	1353.8	104.54	-485.82	1144.4	172.47	-417.34	906.66	197.06	-424.29	793.69	206.17	-482.53	1345.7	-236.87	-528.96	896.99	-298.82	-540.21	735.55	-305.56	-460.07	545.28	98.189	-405.39	652.68	83.573	-441.6	646.6	-199.79	-398.77	455.93	-165.26	-370.64	359.64	-82.607	-394.75	173.66	-77.952	-343.87	1112.3	-58.194	-381.48	264.6	-83.9	-392.18	934.87	-178.25	-502.81	1037.2	198.24	-480.52	731.98	124.21	-465.26	452.17	86.376	-372.53	669.06	-172.19	-416.07	563	-179.76	-246.42	29.874	-103.4	-465.98	738.43	-220.37	-525.36	777.09	-263.14	-587.93	1312.4	36.166	-545.71	1414.5	-65.239	-369.77	765.08	200.73	-402.3	266.52	-153.05	-293.57	38.647	-78.454	-470.99	638.68	109.22	-384.94	1584	-98.051	-376.76	812.16	152.71	-426.92	74.823	-42.325	-579.3	1131.6	-53.093	-330.86	22.008	-157.51	-381.7	1588.1	-24.825	-440.52	61.368	-122.83	-551.91	1541.6	4.498	-612.05	971.69	13.063	-610.16	972.63	-102.67	-525.11	1139.5	-275.97	-606.21	313.73	92.532	-552.27	1545.9	-122.5	-601.36	297.4	22.764	-559.55	1023.9	-281.11	-520.6	343.52	21.18	-740.61	76.449	21.224	-516.71	1014.2	115.82	-680.92	250.24	24.406	-725.09	47.297	52.018	-840.6	242.99	26.249	-573.93	1013.9	-211.7	-491.02	29.164	-70.449	-581.13	785.28	-307.36	-766.46	215.6	-1.6467	-793.45	222.55	74.959	-785.75	92.635	88.751
312	1.56	-413.77	1339	-67.985	-392.62	937.68	83.185	-464.49	1354.6	104.41	-481.28	1145.1	172.2	-414.39	906.73	197.08	-422.36	793.87	206.48	-476.82	1346.6	-237.08	-520.42	897.62	-298.87	-530.9	736.13	-305.52	-451.09	546.82	98.413	-397.37	654.77	84.297	-437.86	646.75	-199.9	-396.42	455.74	-165.31	-368.97	359.35	-82.625	-394.13	173.49	-77.948	-338.4	1113.1	-58.429	-380.31	264.35	-83.898	-387.22	935.56	-179.05	-498.68	1038	197.76	-473.64	733.3	124.26	-454.44	454.08	86.615	-368.6	668.71	-172.42	-412.92	562.99	-179.87	-246.34	29.849	-103.5	-461.58	738.75	-220.48	-516.72	777.77	-262.95	-582.45	1313.3	35.737	-540.05	1415.4	-65.428	-368.25	764.57	200.99	-400.97	266.33	-153.12	-293.59	38.66	-78.498	-463.08	640.15	109.37	-378.92	1584.8	-98.061	-374.7	811.71	152.93	-426.86	74.84	-42.312	-573.69	1132.5	-53.578	-330.86	21.975	-157.56	-375.69	1588.8	-24.827	-440.49	61.393	-122.81	-546.02	1542.6	4.3857	-606.32	972.68	12.816	-604.66	973.48	-102.85	-518.12	1140.2	-276.32	-594.72	315.3	92.521	-546.33	1547.1	-122.59	-589.76	298.98	22.772	-551.78	1024.4	-281.62	-509.19	345.34	21.278	-726.75	78.026	22.355	-512.69	1015	115.31	-669.2	251.59	24.345	-710.95	49.006	53.363	-829.09	243.24	25.859	-566.73	1014.4	-212.33	-491.01	29.209	-70.419	-572	785.7	-307.9	-754.48	216.56	-1.7804	-781.65	223.6	74.789	-772.2	94.293	89.631
313	1.565	-408.23	1339.8	-68.184	-387.28	938.92	83.509	-459.13	1355.3	104.3	-476.73	1145.8	171.93	-411.47	906.81	197.11	-420.46	794.08	206.8	-471.16	1347.6	-237.27	-511.83	898.28	-298.91	-521.47	736.73	-305.46	-442.19	548.41	98.62	-389.43	656.9	85.051	-434.15	646.91	-199.98	-394.13	455.56	-165.33	-367.37	359.07	-82.613	-393.52	173.32	-77.928	-332.94	1113.9	-58.656	-379.18	264.11	-83.873	-382.26	936.26	-179.87	-494.56	1038.7	197.29	-466.83	734.63	124.34	-443.71	456.05	86.83	-364.71	668.35	-172.59	-409.81	562.99	-179.96	-246.26	29.824	-103.59	-457.2	739.08	-220.56	-508.01	778.47	-262.75	-576.99	1314.1	35.318	-534.42	1416.4	-65.601	-366.77	764.1	201.26	-399.7	266.16	-153.16	-293.61	38.67	-78.539	-455.24	641.66	109.53	-372.93	1585.5	-98.055	-372.66	811.27	153.16	-426.8	74.855	-42.29	-568.09	1133.5	-54.057	-330.86	21.942	-157.6	-369.7	1589.4	-24.812	-440.46	61.423	-122.79	-540.15	1543.6	4.2956	-600.59	973.68	12.61	-599.17	974.32	-102.98	-511.15	1140.9	-276.67	-583.18	316.73	92.48	-540.41	1548.2	-122.66	-578.09	300.44	22.755	-544	1024.9	-282.14	-497.78	347.14	21.353	-712.55	79.357	23.492	-508.72	1015.7	114.81	-657.35	252.74	24.252	-696.43	50.536	54.746	-817.43	243.08	25.406	-559.56	1014.9	-213	-490.99	29.258	-70.384	-562.77	786.13	-308.44	-742.31	217.19	-1.9538	-769.7	224.32	74.574	-758.37	95.661	90.506
314	1.57	-402.71	1340.7	-68.373	-381.98	940.12	83.86	-453.8	1356.1	104.2	-472.18	1146.5	171.65	-408.56	906.92	197.13	-418.59	794.31	207.12	-465.52	1348.6	-237.45	-503.2	898.97	-298.94	-511.94	737.37	-305.39	-433.35	550.04	98.807	-381.54	659.06	85.829	-430.47	647.07	-200.01	-391.91	455.4	-165.32	-365.82	358.79	-82.57	-392.94	173.16	-77.893	-327.51	1114.7	-58.877	-378.08	263.88	-83.827	-377.29	936.97	-180.71	-490.44	1039.5	196.83	-460.08	735.97	124.43	-433.08	458.06	87.022	-360.86	667.98	-172.71	-406.76	563	-180	-246.19	29.8	-103.66	-452.84	739.4	-220.6	-499.21	779.2	-262.55	-571.55	1314.9	34.912	-528.81	1417.3	-65.76	-365.31	763.66	201.55	-398.48	266	-153.17	-293.62	38.677	-78.577	-447.45	643.18	109.7	-366.95	1586.3	-98.035	-370.66	810.87	153.4	-426.74	74.868	-42.257	-562.5	1134.4	-54.527	-330.87	21.91	-157.64	-363.73	1590	-24.784	-440.42	61.46	-122.75	-534.3	1544.6	4.2273	-594.85	974.68	12.445	-593.67	975.15	-103.08	-504.2	1141.6	-277.01	-571.6	318.04	92.417	-534.51	1549.4	-122.71	-566.36	301.79	22.72	-536.22	1025.4	-282.67	-486.35	348.92	21.407	-698.04	80.441	24.627	-504.79	1016.5	114.34	-645.37	253.66	24.136	-681.59	51.877	56.151	-805.62	242.51	24.907	-552.42	1015.4	-213.7	-490.97	29.311	-70.342	-553.44	786.58	-308.97	-729.97	217.49	-2.1572	-757.58	224.7	74.325	-744.27	96.74	91.367
315	1.575	-397.21	1341.5	-68.549	-376.69	941.3	84.227	-448.47	1356.8	104.11	-467.62	1147.2	171.36	-405.67	907.04	197.15	-416.74	794.56	207.44	-459.92	1349.6	-237.62	-494.52	899.7	-298.96	-502.3	738.05	-305.3	-424.56	551.71	98.971	-373.71	661.24	86.625	-426.83	647.23	-200	-389.74	455.24	-165.27	-364.32	358.51	-82.499	-392.37	173	-77.843	-322.11	1115.5	-59.094	-377.01	263.66	-83.761	-372.32	937.7	-181.56	-486.33	1040.3	196.38	-453.39	737.32	124.54	-422.54	460.1	87.192	-357.04	667.6	-172.79	-403.74	563.01	-180.01	-246.13	29.777	-103.73	-448.49	739.72	-220.6	-490.33	779.97	-262.33	-566.12	1315.7	34.521	-523.22	1418.2	-65.906	-363.86	763.27	201.85	-397.31	265.86	-153.15	-293.63	38.681	-78.61	-439.71	644.72	109.87	-361	1587	-98.002	-368.67	810.5	153.64	-426.67	74.879	-42.212	-556.93	1135.3	-54.986	-330.87	21.88	-157.68	-357.77	1590.7	-24.745	-440.39	61.502	-122.71	-528.46	1545.6	4.1807	-589.12	975.68	12.324	-588.18	975.98	-103.13	-497.28	1142.3	-277.34	-559.99	319.22	92.335	-528.64	1550.6	-122.74	-554.56	303.01	22.673	-528.44	1026	-283.21	-474.91	350.68	21.446	-683.27	81.281	25.75	-500.89	1017.2	113.9	-633.28	254.38	24.005	-666.46	53.024	57.562	-793.67	241.56	24.383	-545.32	1016	-214.43	-490.95	29.368	-70.293	-544.03	787.05	-309.49	-717.47	217.48	-2.3815	-745.31	224.73	74.054	-729.94	97.529	92.207
316	1.58	-391.72	1342.3	-68.711	-371.4	942.44	84.599	-443.16	1357.6	104.03	-463.04	1147.9	171.06	-402.79	907.18	197.17	-414.91	794.84	207.76	-454.35	1350.6	-237.77	-485.8	900.46	-298.97	-492.57	738.76	-305.2	-415.8	553.4	99.113	-365.93	663.45	87.431	-423.23	647.39	-199.95	-387.63	455.09	-165.18	-362.85	358.24	-82.401	-391.81	172.86	-77.777	-316.72	1116.4	-59.308	-375.95	263.45	-83.676	-367.34	938.44	-182.41	-482.24	1041	195.94	-446.74	738.67	124.66	-412.1	462.17	87.34	-353.26	667.2	-172.83	-400.77	563.02	-179.98	-246.07	29.755	-103.8	-444.17	740.03	-220.57	-481.38	780.77	-262.1	-560.71	1316.5	34.146	-517.65	1419.1	-66.04	-362.44	762.91	202.16	-396.2	265.73	-153.09	-293.64	38.683	-78.638	-432.01	646.26	110.04	-355.07	1587.8	-97.959	-366.7	810.15	153.9	-426.6	74.887	-42.155	-551.37	1136.2	-55.431	-330.87	21.854	-157.71	-351.84	1591.3	-24.696	-440.36	61.551	-122.65	-522.64	1546.5	4.1557	-583.39	976.67	12.243	-582.68	976.81	-103.13	-490.39	1143.1	-277.67	-548.34	320.26	92.24	-522.78	1551.7	-122.75	-542.71	304.11	22.619	-520.68	1026.5	-283.77	-463.47	352.4	21.473	-668.24	81.887	26.849	-497	1018	113.48	-621.07	254.88	23.865	-651.05	53.979	58.96	-781.57	240.22	23.851	-538.27	1016.5	-215.2	-490.92	29.43	-70.236	-534.52	787.53	-310	-704.81	217.16	-2.6178	-732.88	224.44	73.772	-715.38	98.033	93.022
